<?xml version="1.0" encoding="UTF-8" standalone="no"?>
<!-- Created with Inkscape (http://www.inkscape.org/) -->

<svg
   width="80.763557mm"
   height="17.335194mm"
   viewBox="0 0 80.763557 17.335194"
   version="1.1"
   id="svg1"
   xmlns="http://www.w3.org/2000/svg"
   xmlns:svg="http://www.w3.org/2000/svg">
  <defs
     id="defs1" />
  <g
     id="layer1"
     transform="translate(-20.513106,-45.813192)">
    <path
       style="font-weight:bold;font-size:16.9333px;font-family:'IBM Plex Sans';-inkscape-font-specification:'IBM Plex Sans Bold';fill:#000080;stroke-width:0.265"
       d="m 20.513106,51.125743 h 5.740389 q 1.473197,0 2.285995,0.829732 0.829732,0.829732 0.829732,2.201329 0,0.677332 -0.186266,1.151464 -0.169333,0.474133 -0.474133,0.778932 -0.287866,0.3048 -0.694265,0.457199 -0.389466,0.135467 -0.846665,0.1524 v 0.1016 q 0.423332,0 0.880531,0.152399 0.474133,0.1524 0.863599,0.491066 0.389466,0.321733 0.643465,0.846665 0.270933,0.524932 0.270933,1.286931 0,0.694265 -0.237066,1.320797 -0.220133,0.609599 -0.626532,1.066798 -0.4064,0.457199 -0.965198,0.728132 -0.558799,0.254 -1.219198,0.254 h -6.265321 z m 2.573862,9.651981 h 2.963327 q 0.507999,0 0.795865,-0.270933 0.3048,-0.287866 0.3048,-0.795865 v -0.575732 q 0,-0.507999 -0.3048,-0.778932 -0.287866,-0.287866 -0.795865,-0.287866 h -2.963327 z m 0,-4.809057 h 2.556928 q 0.507999,0 0.795865,-0.287866 0.287866,-0.287866 0.287866,-0.795865 v -0.507999 q 0,-0.507999 -0.287866,-0.795865 -0.287866,-0.287866 -0.795865,-0.287866 h -2.556928 z m 9.838244,-2.861728 q -0.761999,0 -1.117598,-0.338666 -0.338666,-0.355599 -0.338666,-0.897465 v -0.372532 q 0,-0.541866 0.338666,-0.880532 0.355599,-0.355599 1.117598,-0.355599 0.761998,0 1.100664,0.355599 0.3556,0.338666 0.3556,0.880532 v 0.372532 q 0,0.541866 -0.3556,0.897465 -0.338666,0.338666 -1.100664,0.338666 z m -1.253064,0.948265 h 2.506128 v 8.889983 h -2.506128 z m 4.842912,8.889983 v -8.889983 h 2.506129 v 1.507064 h 0.101599 q 0.237067,-0.694265 0.829732,-1.202264 0.592666,-0.507999 1.64253,-0.507999 1.371598,0 2.065863,0.914398 0.711198,0.914398 0.711198,2.607728 v 5.571056 h -2.506128 v -5.367856 q 0,-0.863599 -0.270933,-1.269998 -0.270933,-0.423332 -0.965198,-0.423332 -0.304799,0 -0.592665,0.08467 -0.287866,0.06773 -0.524933,0.237066 -0.220133,0.169333 -0.355599,0.423333 -0.135466,0.237066 -0.135466,0.558799 v 5.757322 z m 11.345323,-9.838248 q -0.761999,0 -1.117598,-0.338666 -0.338666,-0.355599 -0.338666,-0.897465 v -0.372532 q 0,-0.541866 0.338666,-0.880532 0.355599,-0.355599 1.117598,-0.355599 0.761998,0 1.100664,0.355599 0.3556,0.338666 0.3556,0.880532 v 0.372532 q 0,0.541866 -0.3556,0.897465 -0.338666,0.338666 -1.100664,0.338666 z m -1.253064,0.948265 h 2.506128 v 8.889983 h -2.506128 z m 4.84291,8.889983 v -8.889983 h 2.506129 v 1.507064 h 0.1016 q 0.237066,-0.711199 0.812798,-1.202264 0.575732,-0.507999 1.574797,-0.507999 0.914398,0 1.557864,0.457199 0.643465,0.457199 0.931331,1.33773 h 0.0508 q 0.118533,-0.372532 0.355599,-0.694265 0.254,-0.338666 0.609599,-0.575732 0.355599,-0.237066 0.795865,-0.372533 0.440266,-0.152399 0.948265,-0.152399 1.286931,0 1.964263,0.914398 0.694265,0.914398 0.694265,2.607728 v 5.571056 h -2.506128 v -5.367856 q 0,-1.69333 -1.219198,-1.69333 -0.558799,0 -1.015998,0.321732 -0.457199,0.321733 -0.457199,0.982132 v 5.757322 h -2.506128 v -5.367856 q 0,-1.69333 -1.219198,-1.69333 -0.270933,0 -0.541866,0.08467 -0.253999,0.06773 -0.474132,0.237066 -0.2032,0.169333 -0.338666,0.423333 -0.118533,0.237066 -0.118533,0.558799 v 5.757322 z m 20.387679,-1.490131 h -0.08467 q -0.118533,0.338666 -0.321732,0.643466 -0.186267,0.304799 -0.491066,0.541865 -0.3048,0.237066 -0.728132,0.372533 -0.406399,0.135466 -0.948265,0.135466 -1.371597,0 -2.082796,-0.897465 -0.694265,-0.914398 -0.694265,-2.607728 v -5.587989 h 2.506128 v 5.367856 q 0,0.812799 0.287866,1.253064 0.287867,0.440266 0.982132,0.440266 0.287866,0 0.575732,-0.08467 0.287866,-0.08467 0.507999,-0.237066 0.220133,-0.169333 0.355599,-0.4064 0.135467,-0.237066 0.135467,-0.558799 v -5.774255 h 2.506128 v 8.889983 h -2.506128 z m 4.842935,1.490131 v -8.889983 h 2.506129 v 1.507064 h 0.101599 q 0.237067,-0.711199 0.812799,-1.202264 0.575732,-0.507999 1.574797,-0.507999 0.914398,0 1.557863,0.457199 0.643466,0.457199 0.931332,1.33773 h 0.0508 q 0.118533,-0.372532 0.355599,-0.694265 0.253999,-0.338666 0.609599,-0.575732 0.355599,-0.237066 0.795865,-0.372533 0.440266,-0.152399 0.948265,-0.152399 1.28693,0 1.964262,0.914398 0.694266,0.914398 0.694266,2.607728 v 5.571056 h -2.506129 v -5.367856 q 0,-1.69333 -1.219197,-1.69333 -0.558799,0 -1.015998,0.321732 -0.457199,0.321733 -0.457199,0.982132 v 5.757322 h -2.506129 v -5.367856 q 0,-1.69333 -1.219197,-1.69333 -0.270933,0 -0.541866,0.08467 -0.253999,0.06773 -0.474132,0.237066 -0.2032,0.169333 -0.338666,0.423333 -0.118533,0.237066 -0.118533,0.558799 v 5.757322 z"
       id="text1"
       aria-label="Binimum" />
    <path
       id="rect6"
       style="fill:#ff2a2a;stroke:#ffffff;stroke-width:0.264583"
       d="m 96.701863,109.24969 h 3.618747 a 71.150757,71.150757 45 0 1 71.15076,71.15076 v 12.52917 a 71.150757,71.150757 135 0 1 -71.15076,71.15076 H 96.701863 A 2.6458333,2.6458333 45 0 1 94.05603,261.43455 V 111.89552 a 2.6458333,2.6458333 135 0 1 2.645833,-2.64583 z"
       transform="matrix(0.11757806,0,0,0.1117673,81.09984,33.617435)" />
  </g>
</svg>
